<svg xmlns="http://www.w3.org/2000/svg" width="48" height="48" viewBox="0 0 48 48"><path stroke="none" d="M 24 0 C 10.751088 0 4.7369516e-015 10.7511 0 24 C 0 37.2489 10.751088 48 24 48 C 37.248912 48 48 37.2489 48 24 C 48 10.7511 37.248912 0 24 0 z M 24 1 C 36.708472 1 47 11.2916 47 24 C 47 36.7085 36.708472 47 24 47 C 11.291528 47 1 36.7085 1 24 C 1 11.2916 11.291528 1 24 1 z M 8.5 15 A 0.50005 0.50005 0 0 0 8 15.5 L 8 17 L 8 18 L 8 21.5 L 8 26.5 L 8 30 L 8 31 L 8 32.5 A 0.50005 0.50005 0 0 0 8.5 33 L 39.5 33 A 0.50005 0.50005 0 0 0 40 32.5 L 40 26.5 L 40 21.5 L 40 15.5 A 0.50005 0.50005 0 0 0 39.5 15 L 8.5 15 z M 9 16 L 23.5 16 L 23.5 20.048828 C 21.533831 20.298528 20 21.9679 20 24 C 20 26.0321 21.533865 27.699519 23.5 27.949219 L 23.5 32 L 9 32 L 9 31 L 11 31 C 14.869351 31 18 27.8694 18 24 C 18 20.1307 14.869351 17 11 17 L 9 17 L 9 16 z M 24.5 16 L 39 16 L 39 17 L 37 17 C 33.130649 17 30 20.1307 30 24 C 30 27.8694 33.130649 31 37 31 L 39 31 L 39 32 L 24.5 32 L 24.5 27.949219 C 26.466135 27.699519 28 26.0321 28 24 C 28 21.9679 26.466169 20.298528 24.5 20.048828 L 24.5 16 z M 9 18 L 11 18 C 13.374885 18 15.406165 19.357197 16.380859 21.341797 C 15.960489 21.123197 15.489666 21 15 21 L 14.5 21 L 9 21 L 9 18 z M 37 18 L 39 18 L 39 21 L 33.5 21 L 33 21 C 32.510334 21 32.039511 21.123197 31.619141 21.341797 C 32.593835 19.357197 34.625115 18 37 18 z M 23.5 21.050781 L 23.5 22.070312 C 22.64189 22.295112 22 23.0747 22 24 C 22 24.9253 22.64189 25.702934 23.5 25.927734 L 23.5 26.949219 C 22.078764 26.711319 21 25.4912 21 24 C 21 22.5089 22.078843 21.288781 23.5 21.050781 z M 24.5 21.050781 C 25.921157 21.288781 27 22.5089 27 24 C 27 25.4912 25.921236 26.711319 24.5 26.949219 L 24.5 25.927734 C 25.35811 25.702934 26 24.9253 26 24 C 26 23.0747 25.35811 22.295112 24.5 22.070312 L 24.5 21.050781 z M 9 22 L 14 22 L 14 26 L 9 26 L 9 22 z M 15 22 C 15.715333 22 16.374756 22.3805 16.732422 23 C 17.090088 23.6195 17.090088 24.3805 16.732422 25 C 16.374756 25.6195 15.715333 26 15 26 L 15 22 z M 33 22 L 33 26 C 32.284667 26 31.625245 25.6195 31.267578 25 C 30.909912 24.3805 30.909912 23.6195 31.267578 23 C 31.625245 22.3805 32.284667 22 33 22 z M 34 22 L 39 22 L 39 26 L 34 26 L 34 22 z M 9.5 23 L 9.5 25 L 10.5 25 L 10.5 23 L 9.5 23 z M 37.5 23 L 37.5 25 L 38.5 25 L 38.5 23 L 37.5 23 z M 23.5 23.148438 L 23.5 24.849609 C 23.204848 24.677009 23 24.3712 23 24 C 23 23.6287 23.204848 23.320937 23.5 23.148438 z M 24.5 23.148438 C 24.795152 23.320937 25 23.6287 25 24 C 25 24.3712 24.795152 24.677009 24.5 24.849609 L 24.5 23.148438 z M 11 23.5 L 11 24.5 C 11 24.5001 11.223 24.5 11.5 24.5 C 11.777 24.5 12 24.5001 12 24.5 L 12 23.5 L 11.5 23.5 L 11 23.5 z M 36 23.5 L 36 24.5 C 36 24.5001 36.223 24.5 36.5 24.5 C 36.777 24.5 37 24.5001 37 24.5 L 37 23.5 L 36.5 23.5 L 36 23.5 z M 16.380859 26.65625 C 15.406165 28.64085 13.374885 30 11 30 L 9 30 L 9 27 L 14.5 27 L 15 27 C 15.489666 27 15.960489 26.87485 16.380859 26.65625 z M 31.619141 26.65625 C 32.039511 26.87485 32.510334 27 33 27 L 33.5 27 L 39 27 L 39 30 L 37 30 C 34.625115 30 32.593835 28.64085 31.619141 26.65625 z " color="#000" font-family="sans-serif" font-weight="400" overflow="visible" white-space="normal" style="line-height:normal;text-indent:0;text-align:start;text-decoration-line:none;text-decoration-style:solid;text-decoration-color:#000;text-transform:none;block-progression:tb;isolation:auto;mix-blend-mode:normal"/></svg>