<?xml version="1.0" encoding="utf-8"?>
<!-- Svg Vector Icons : http://www.onlinewebfonts.com/icon -->
<!DOCTYPE svg PUBLIC "-//W3C//DTD SVG 1.1//EN" "http://www.w3.org/Graphics/SVG/1.1/DTD/svg11.dtd">
<svg version="1.1" xmlns="http://www.w3.org/2000/svg" xmlns:xlink="http://www.w3.org/1999/xlink" x="0px" y="0px" viewBox="0 0 1000 1000" enable-background="new 0 0 1000 1000" xml:space="preserve">
<metadata> Svg Vector Icons : http://www.onlinewebfonts.com/icon </metadata>
<g><g><g><path d="M500,10C229.4,10,10,229.4,10,500c0,270.6,219.4,490,490,490c270.6,0,490-219.4,490-490C990,229.4,770.6,10,500,10z M202.8,314.3c0-31.6,25.6-57.1,57.2-57.1c31.6,0,57.2,25.6,57.2,57.1c0,31.6-25.6,57.2-57.2,57.2C228.4,371.5,202.8,345.9,202.8,314.3z M347.5,511.7c-31.6,0-57.1-25.6-57.1-57.2c0-31.6,25.6-57.2,57.1-57.2c31.6,0,57.2,25.6,57.2,57.2C404.7,486,379.1,511.7,347.5,511.7z M442.9,371.5c-31.6,0-57.1-25.6-57.1-57.2c0-31.6,25.6-57.1,57.1-57.1s57.1,25.6,57.1,57.1C500,345.9,474.4,371.5,442.9,371.5z"/></g></g><g></g><g></g><g></g><g></g><g></g><g></g><g></g><g></g><g></g><g></g><g></g><g></g><g></g><g></g><g></g></g>
</svg>