<?xml version="1.0" encoding="utf-8"?>
<!-- Svg Vector Icons : http://www.onlinewebfonts.com/icon -->
<!DOCTYPE svg PUBLIC "-//W3C//DTD SVG 1.1//EN" "http://www.w3.org/Graphics/SVG/1.1/DTD/svg11.dtd">
<svg version="1.1" xmlns="http://www.w3.org/2000/svg" xmlns:xlink="http://www.w3.org/1999/xlink" x="0px" y="0px" viewBox="0 0 1000 1000" enable-background="new 0 0 1000 1000" xml:space="preserve">
<metadata> Svg Vector Icons : http://www.onlinewebfonts.com/icon </metadata>
<g><path d="M716.9,470.4c-136,47.3-270.3,94-406,141.2c5.5,16.7,10.6,32.4,15.9,48.1c17.8,52.6,35.7,105.2,53.3,157.9c6.8,20.4,1.6,39-13.5,50.8c-14.4,11.3-35.1,13.2-49.1,1.3c-8.2-7-15.1-17.5-18.6-27.8c-34.9-101.4-69.1-203-103.4-304.6c-20.5-60.7-41-121.4-61.3-182.2c-8.1-24.3-0.5-45.6,19.5-56c24.1-12.6,50.9-0.9,60.4,27c17.3,50.5,34.2,101.2,51.2,151.8c5.7,16.9,11.6,33.7,17.7,51.8c135.5-47.1,269.9-93.8,405.8-141.1c-2-6.6-3.7-12.5-5.7-18.4c-20.2-59.9-40.7-119.7-60.6-179.7c-3.2-9.5-6-20.1-5.2-29.9c1.8-21,17.9-35.5,38.5-37.8c18.2-2,36.2,9.4,43.1,28.8c13.5,38.3,26.2,76.8,39.2,115.3c42.5,125.9,85,251.8,127.5,377.7c8,23.9,1.2,44.9-17.6,55.8c-24.3,14.1-52.5,2.2-62.4-26.7c-18.8-55-37.2-110.1-55.8-165.1C725.8,496.2,721.6,484.1,716.9,470.4"/><path d="M891.9,316.1c13.5-5,25.6-9.5,37.8-14c25.6-9.2,49.6,1.3,57.8,25.3c8,23.5-3.7,46.6-28.6,56.2c-7.8,3-15.8,5.8-23.6,8.8c-15.9,6.1-15.9,6.1-10.6,22.1c12.4,37.3,25.1,74.5,37.1,111.9c5.7,17.8-0.4,36.5-14.2,47.3c-13.3,10.5-34.2,13.3-47.1,2.6c-9.2-7.6-17.4-18.9-21.3-30.3C845.6,448,813,349.4,780.1,251c-3.4-10.1-6.9-20.2-10.1-30.4c-7.6-24.7,3.4-48.2,26.2-56.2c22.6-7.9,45.6,4,54.1,28.6c12.7,36.7,24.9,73.7,37.3,110.5C888.8,307.1,890,310.7,891.9,316.1"/><path d="M108,683.6c-13.2,5-24.9,9.5-36.6,13.9c-25.8,9.5-49.6-0.3-58.4-24c-9-24.2,2.8-47.4,29.4-57.6c12.1-4.7,24.2-9.4,37.8-14.6c-1.5-5.3-2.8-10-4.4-14.7c-12.4-37.3-25.4-74.4-37.2-111.9c-10.3-32.5,14.1-61.7,47.1-56.7c19.3,2.9,29.2,16.5,35.1,34.4c32.1,96.5,64.4,192.9,96.7,289.3c4.2,12.6,8.6,25.1,12.5,37.7c7.6,24.7-3.5,48.1-26.3,56c-22.7,7.9-45.5-3.9-54-28.6c-12.5-36.3-24.6-72.9-36.9-109.3C111.4,693.5,110,689.5,108,683.6"/></g>
</svg>